<svg
   xmlns:dc="http://purl.org/dc/elements/1.1/"
   xmlns:cc="http://creativecommons.org/ns#"
   xmlns:rdf="http://www.w3.org/1999/02/22-rdf-syntax-ns#"
   xmlns:svg="http://www.w3.org/2000/svg"
   xmlns="http://www.w3.org/2000/svg"
   xmlns:sodipodi="http://sodipodi.sourceforge.net/DTD/sodipodi-0.dtd"
   xmlns:inkscape="http://www.inkscape.org/namespaces/inkscape"
   width="424"
   height="328"
   viewBox="0 0 112.18333 86.783336"
   version="1.1"
   id="svg4357"
   inkscape:version="0.92.1 r15371"
   sodipodi:docname="logo.svg">
  <defs
     id="defs4351" />
  <sodipodi:namedview
     id="base"
     pagecolor="#ffffff"
     bordercolor="#666666"
     borderopacity="1.0"
     inkscape:pageopacity="0.0"
     inkscape:pageshadow="2"
     inkscape:zoom="1.4"
     inkscape:cx="38.734743"
     inkscape:cy="67.777082"
     inkscape:document-units="mm"
     inkscape:current-layer="layer1"
     showgrid="false"
     units="px"
     inkscape:window-width="1920"
     inkscape:window-height="1017"
     inkscape:window-x="1912"
     inkscape:window-y="-8"
     inkscape:window-maximized="1" />
  <metadata
     id="metadata4354">
    <rdf:RDF>
      <cc:Work
         rdf:about="">
        <dc:format>image/svg+xml</dc:format>
        <dc:type
           rdf:resource="http://purl.org/dc/dcmitype/StillImage" />
        <dc:title></dc:title>
      </cc:Work>
    </rdf:RDF>
  </metadata>
  <g
     inkscape:label="Layer 1"
     inkscape:groupmode="layer"
     id="layer1"
     transform="translate(0,-210.21665)">
    <g
       id="g3698"
       transform="matrix(0.35277777,0,0,-0.35277777,71.361403,224.00622)">
      <path
         d="m 0,0 c -2.215,0 -3.885,1.753 -3.885,3.896 0,2.168 1.683,3.945 3.909,3.945 2.215,0 3.885,-1.753 3.885,-3.897 C 3.909,1.777 2.227,0 0,0 m 0.025,8.539 c -2.589,0 -4.63,-2.105 -4.63,-4.619 0,-2.538 2.014,-4.618 4.604,-4.618 2.59,0 4.631,2.105 4.631,4.618 0,2.539 -2.016,4.619 -4.605,4.619 M -1.019,4.086 V 5.649 H 0.272 C 0.9,5.649 1.279,5.354 1.279,4.892 1.279,4.371 0.854,4.086 0.237,4.086 Z M 1.954,4.903 C 1.954,5.282 1.812,5.579 1.6,5.78 1.315,6.064 0.854,6.242 0.297,6.242 H -1.67 V 1.848 h 0.651 V 3.506 H 0.083 L 1.374,1.848 H 2.18 L 0.817,3.612 C 1.48,3.766 1.954,4.193 1.954,4.903"
         style="fill:#dc0021;fill-opacity:1;fill-rule:nonzero;stroke:none"
         id="path3700"
         inkscape:connector-curvature="0" />
    </g>
    <g
       id="g3702"
       transform="matrix(0.35277777,0,0,-0.35277777,70.853615,228.20233)">
      <path
         d="m 0,0 -10.381,17.98 c -0.876,1.518 -2.496,2.453 -4.249,2.453 h -52.717 c -1.753,0 -3.372,-0.935 -4.249,-2.453 L -81.977,0 -56.313,-3.34 c 3.284,-0.428 5.495,-3.58 4.777,-6.814 l -5.612,-25.309 c -0.349,-1.572 0.239,-3.204 1.51,-4.191 l 14.65,-11.384 14.649,11.384 c 1.272,0.987 1.86,2.619 1.511,4.191 l -5.613,25.311 c -0.717,3.234 1.494,6.386 4.778,6.814 z"
         style="fill:#dc0021;fill-opacity:1;fill-rule:nonzero;stroke:none"
         id="path3704"
         inkscape:connector-curvature="0" />
    </g>
    <g
       id="g3706"
       transform="matrix(0.35277777,0,0,-0.35277777,58.58492,213.98839)">
      <path
         d="M 0,0 -5.497,9.521 -10.994,0 -21.733,6.368 -17.064,-8.793 c 0.204,-0.662 0.815,-1.114 1.508,-1.114 H 4.562 c 0.692,0 1.304,0.452 1.507,1.114 l 4.669,15.161 z"
         style="fill:#dc0021;fill-opacity:1;fill-rule:nonzero;stroke:none"
         id="path3708"
         inkscape:connector-curvature="0" />
    </g>
    <g
       id="g3710"
       transform="matrix(0.35277777,0,0,-0.35277777,55.080567,252.68906)">
      <path
         d="m 0,0 -13.912,-11.278 h 35.27 L 7.445,0 C 5.275,1.759 2.17,1.759 0,0"
         style="fill:#f84800;fill-opacity:1;fill-rule:nonzero;stroke:none"
         id="path3712"
         inkscape:connector-curvature="0" />
    </g>
    <g
       id="g3714"
       transform="matrix(0.35277777,0,0,-0.35277777,76.490473,237.96539)">
      <path
         d="M 0,0 -12.906,22.354 -33.72,11.813 c -2.424,-1.227 -3.474,-4.128 -2.397,-6.623 l 5.77,-13.365 c 0.691,-1.598 0.39,-3.45 -0.768,-4.749 l -11.486,-12.869 c -2.83,-3.17 -2.808,-7.966 0.05,-11.11 l 14.641,-16.111 h 0.135 L 0,-4.906 C 0.876,-3.388 0.876,-1.518 0,0"
         style="fill:#f84800;fill-opacity:1;fill-rule:nonzero;stroke:none"
         id="path3716"
         inkscape:connector-curvature="0" />
    </g>
    <g
       id="g3718"
       transform="matrix(0.35277777,0,0,-0.35277777,51.325955,247.06459)">
      <path
         d="m 0,0 -11.485,12.869 c -1.159,1.298 -1.459,3.151 -0.769,4.749 l 5.77,13.365 c 1.077,2.495 0.027,5.396 -2.397,6.623 l -20.814,10.54 -12.906,-22.353 c -0.876,-1.518 -0.876,-3.388 0,-4.906 l 27.775,-48.108 h 0.135 L -0.05,-11.11 C 2.808,-7.966 2.83,-3.17 0,0"
         style="fill:#f84800;fill-opacity:1;fill-rule:nonzero;stroke:none"
         id="path3720"
         inkscape:connector-curvature="0" />
    </g>
    <g
       id="g3722"
       transform="matrix(0.35277777,0,0,-0.35277777,3.6287757,284.43508)">
      <path
         d="M 0,0 V 30.759 L -9.173,30.354 V 44.992 H 25.229 V 30.354 l -9.174,0.405 V 0 Z"
         style="fill:#dc0021;fill-opacity:1;fill-rule:nonzero;stroke:none"
         id="path3724"
         inkscape:connector-curvature="0" />
    </g>
    <g
       id="g3726"
       transform="matrix(0.35277777,0,0,-0.35277777,20.68043,274.13114)">
      <path
         d="m 0,0 c -1.619,-1.687 -2.563,-4.317 -2.563,-6.746 0,-2.563 0.944,-5.059 2.563,-6.678 1.349,-1.348 3.373,-2.293 5.868,-2.293 2.497,0 4.52,0.945 5.869,2.293 1.484,1.484 2.563,3.845 2.563,6.678 0,2.833 -0.944,5.194 -2.563,6.746 C 10.523,1.214 8.566,2.293 5.868,2.293 2.968,2.293 1.08,1.146 0,0 m 24.554,-23.002 c -3.846,-3.913 -10.118,-7.218 -18.686,-7.218 -8.566,0 -14.839,3.305 -18.684,7.218 -3.508,3.575 -6.273,9.106 -6.273,16.324 0,7.15 2.765,12.681 6.273,16.256 3.845,3.913 10.118,7.218 18.684,7.218 8.568,0 14.84,-3.305 18.686,-7.218 3.507,-3.575 6.273,-9.106 6.273,-16.256 0,-7.218 -2.766,-12.749 -6.273,-16.324"
         style="fill:#dc0021;fill-opacity:1;fill-rule:nonzero;stroke:none"
         id="path3728"
         inkscape:connector-curvature="0" />
    </g>
    <g
       id="g3730"
       transform="matrix(0.35277777,0,0,-0.35277777,39.945942,275.65423)">
      <path
         d="M 0,0 H 2.766 C 3.575,0 5.262,0.067 6.409,1.214 7.015,1.754 7.488,2.631 7.488,3.98 7.488,5.396 6.881,6.273 6.274,6.745 5.532,7.353 4.183,7.757 2.968,7.757 H 0 Z M -15.919,-24.891 V 20.102 H 5.667 c 7.149,0 11.264,-2.901 13.153,-4.723 3.71,-3.642 4.587,-8.229 4.587,-11.804 0,-3.71 -0.809,-7.96 -4.452,-11.265 -3.575,-3.238 -7.622,-3.642 -11.063,-3.642 H 0 v -13.559 z"
         style="fill:#dc0021;fill-opacity:1;fill-rule:nonzero;stroke:none"
         id="path3732"
         inkscape:connector-curvature="0" />
    </g>
    <g
       id="g3734"
       transform="matrix(0.35277777,0,0,-0.35277777,56.134421,275.65423)">
      <path
         d="M 0,0 H 2.766 C 3.575,0 5.261,0.067 6.408,1.214 7.015,1.754 7.487,2.631 7.487,3.98 7.487,5.396 6.88,6.273 6.272,6.745 5.531,7.353 4.182,7.757 2.968,7.757 H 0 Z M -15.919,-24.891 V 20.102 H 5.666 c 7.15,0 11.265,-2.901 13.153,-4.723 3.71,-3.642 4.587,-8.229 4.587,-11.804 0,-3.71 -0.809,-7.96 -4.452,-11.265 -3.574,-3.238 -7.622,-3.642 -11.061,-3.642 H 0 v -13.559 z"
         style="fill:#dc0021;fill-opacity:1;fill-rule:nonzero;stroke:none"
         id="path3736"
         inkscape:connector-curvature="0" />
    </g>
    <g
       id="g3738"
       transform="matrix(0.35277777,0,0,-0.35277777,66.706747,284.43508)">
      <path
         d="M 0,0 V 44.992 H 30.354 V 32.647 H 16.324 V 28.466 H 29.072 V 16.661 H 16.324 V 12.344 H 30.759 V 0 Z"
         style="fill:#dc0021;fill-opacity:1;fill-rule:nonzero;stroke:none"
         id="path3740"
         inkscape:connector-curvature="0" />
    </g>
    <g
       id="g3742"
       transform="matrix(0.35277777,0,0,-0.35277777,86.349978,275.63045)">
      <path
         d="m 0,0 h 1.889 c 0.945,0 2.428,0.135 3.44,1.012 0.54,0.472 1.147,1.349 1.147,2.765 0,1.013 -0.27,2.024 -0.877,2.699 C 5.06,7.083 4.183,7.689 2.834,7.689 H 0 Z M -15.919,-24.958 V 20.034 H 4.385 c 4.721,0 9.645,-0.539 13.761,-4.654 2.293,-2.294 4.25,-5.734 4.25,-11.063 0,-3.98 -1.214,-6.476 -2.497,-8.027 -1.349,-1.686 -3.575,-3.035 -6.206,-3.575 V -7.69 c 0.877,-0.472 1.754,-1.146 2.362,-2.091 L 26.173,-24.958 H 7.354 l -6.476,13.154 c -0.203,0.471 -0.405,0.674 -0.607,1.416 L 0,-10.522 v -14.436 z"
         style="fill:#dc0021;fill-opacity:1;fill-rule:nonzero;stroke:none"
         id="path3744"
         inkscape:connector-curvature="0" />
    </g>
    <g
       id="g3746"
       transform="matrix(0.35277777,0,0,-0.35277777,97.617844,268.56283)">
      <path
         d="M 0,0 H 41.889 L 24.823,-27.792 c -0.675,-1.146 -1.619,-2.36 -2.496,-3.305 l 0.135,-0.27 3.102,0.27 H 39.865 V -44.992 H -3.912 l 16.66,26.914 c 1.08,1.686 1.821,2.968 3.576,4.856 l -0.136,0.271 c -0.741,-0.271 -2.225,-0.674 -3.237,-0.674 H 0 Z"
         style="fill:#dc0021;fill-opacity:1;fill-rule:nonzero;stroke:none"
         id="path3748"
         inkscape:connector-curvature="0" />
    </g>
    <g
       id="g3750"
       transform="matrix(0.35277777,0,0,-0.35277777,17.564874,292.34502)">
      <path
         d="m 0,0 v -11.216 h -1.715 v 9.602 h -3.733 v -5.583 c 0,-1.278 -0.051,-2.573 -1.11,-3.448 -0.572,-0.47 -1.329,-0.672 -2.035,-0.672 -0.303,0 -0.555,0.05 -0.757,0.101 v 1.581 c 0.168,-0.051 0.387,-0.101 0.622,-0.101 0.438,0 0.791,0.167 1.01,0.386 0.571,0.556 0.554,1.682 0.554,2.657 V 0 Z"
         style="fill:#f84800;fill-opacity:1;fill-rule:nonzero;stroke:none"
         id="path3752"
         inkscape:connector-curvature="0" />
    </g>
    <g
       id="g3754"
       transform="matrix(0.35277777,0,0,-0.35277777,19.710997,292.34502)">
      <path
         d="M 0,0 2.893,-5.986 5.516,0 H 7.298 L 2.236,-11.216 H 0.454 L 1.9,-8.038 -2.085,0 Z"
         style="fill:#f84800;fill-opacity:1;fill-rule:nonzero;stroke:none"
         id="path3756"
         inkscape:connector-curvature="0" />
    </g>
    <g
       id="g3758"
       transform="matrix(0.35277777,0,0,-0.35277777,25.793662,294.67632)">
      <path
         d="m 0,0 c -0.656,-0.051 -1.766,-0.118 -2.287,-0.118 -0.757,0 -1.951,0.067 -2.741,0.689 -1.043,0.825 -1.094,2.186 -1.094,2.725 v 3.312 h 1.716 v -3.06 c 0,-0.471 0,-1.261 0.605,-1.732 0.387,-0.303 1.009,-0.353 1.782,-0.353 0.741,0 1.414,0.05 2.019,0.117 V 6.608 H 1.715 V -4.608 H 0 Z"
         style="fill:#f84800;fill-opacity:1;fill-rule:nonzero;stroke:none"
         id="path3760"
         inkscape:connector-curvature="0" />
    </g>
    <g
       id="g3762"
       transform="matrix(0.35277777,0,0,-0.35277777,28.168,292.34502)">
      <path
         d="M 0,0 H 1.715 V -9.603 H 5.684 V 0 h 1.715 v -9.603 h 3.969 V 0 h 1.715 V -11.216 H 0 Z"
         style="fill:#f84800;fill-opacity:1;fill-rule:nonzero;stroke:none"
         id="path3764"
         inkscape:connector-curvature="0" />
    </g>
    <g
       id="g3766"
       transform="matrix(0.35277777,0,0,-0.35277777,36.726492,294.77743)">
      <path
         d="M 0,0 -1.665,3.801 -3.397,0 Z M 0.689,-1.614 H -4.104 L -5.332,-4.321 H -7.181 L -1.598,7.551 3.716,-4.321 h -1.85 z"
         style="fill:#f84800;fill-opacity:1;fill-rule:nonzero;stroke:none"
         id="path3768"
         inkscape:connector-curvature="0" />
    </g>
    <g
       id="g3770"
       transform="matrix(0.35277777,0,0,-0.35277777,40.939154,292.90245)">
      <path
         d="m 0,0 c -0.824,0 -1.463,-0.085 -1.917,-0.521 -0.303,-0.287 -0.538,-0.741 -0.538,-1.296 0,-0.757 0.37,-1.16 0.639,-1.346 0.454,-0.301 1.194,-0.402 1.715,-0.402 H 0.841 V 0 Z m -1.413,-4.961 c -0.571,0.067 -1.244,0.336 -1.732,0.756 -0.79,0.689 -0.958,1.565 -0.958,2.388 0,0.824 0.202,1.631 0.858,2.338 0.975,1.042 2.253,1.059 3.043,1.059 H 2.556 V -9.636 H 0.841 v 4.49 H 0.437 l -3.061,-4.49 h -2.118 z"
         style="fill:#f84800;fill-opacity:1;fill-rule:nonzero;stroke:none"
         id="path3772"
         inkscape:connector-curvature="0" />
    </g>
    <g
       id="g3774"
       transform="matrix(0.35277777,0,0,-0.35277777,48.857355,292.34502)">
      <path
         d="m 0,0 v -11.216 h -1.715 v 9.602 h -4.81 v -9.602 H -8.24 V 0 Z"
         style="fill:#f84800;fill-opacity:1;fill-rule:nonzero;stroke:none"
         id="path3776"
         inkscape:connector-curvature="0" />
    </g>
    <g
       id="g3778"
       transform="matrix(0.35277777,0,0,-0.35277777,53.299111,293.63831)">
      <path
         d="M 0,0 -7.567,-8.055 V 3.666 h 1.715 V -3.918 L 1.716,4.137 V -7.55 H 0 Z"
         style="fill:#f84800;fill-opacity:1;fill-rule:nonzero;stroke:none"
         id="path3780"
         inkscape:connector-curvature="0" />
    </g>
    <g
       id="g3782"
       transform="matrix(0.35277777,0,0,-0.35277777,55.676234,292.34502)">
      <path
         d="M 0,0 H 1.716 V -9.603 H 6.357 V 0 h 1.715 v -9.603 h 1.447 v -4.136 H 7.904 v 2.523 H 0 Z"
         style="fill:#f84800;fill-opacity:1;fill-rule:nonzero;stroke:none"
         id="path3784"
         inkscape:connector-curvature="0" />
    </g>
    <g
       id="g3786"
       transform="matrix(0.35277777,0,0,-0.35277777,60.468367,292.34502)">
      <path
         d="M 0,0 H 1.715 V -9.603 H 6.356 V 0 h 1.715 v -9.603 h 1.447 v -4.136 H 7.903 v 2.523 H 0 Z"
         style="fill:#f84800;fill-opacity:1;fill-rule:nonzero;stroke:none"
         id="path3788"
         inkscape:connector-curvature="0" />
    </g>
    <g
       id="g3790"
       transform="matrix(0.35277777,0,0,-0.35277777,67.570771,294.77743)">
      <path
         d="M 0,0 -1.665,3.801 -3.397,0 Z m 0.688,-1.614 h -4.792 l -1.228,-2.707 h -1.85 L -1.598,7.551 3.716,-4.321 h -1.85 z"
         style="fill:#f84800;fill-opacity:1;fill-rule:nonzero;stroke:none"
         id="path3792"
         inkscape:connector-curvature="0" />
    </g>
    <g
       id="g3794"
       transform="matrix(0.35277777,0,0,-0.35277777,75.209927,293.63831)">
      <path
         d="M 0,0 -7.567,-8.055 V 3.666 h 1.714 V -3.918 L 1.715,4.137 V -7.55 H 0 Z"
         style="fill:#f84800;fill-opacity:1;fill-rule:nonzero;stroke:none"
         id="path3796"
         inkscape:connector-curvature="0" />
    </g>
    <g
       id="g3798"
       transform="matrix(0.35277777,0,0,-0.35277777,82.85529,293.2704)">
      <path
         d="m 0,0 c -1.245,1.126 -2.405,1.244 -3.044,1.244 -2.438,0 -4.087,-1.799 -4.087,-4.271 0,-2.371 1.716,-4.204 4.104,-4.204 1.344,0 2.387,0.689 3.027,1.295 v -2.035 c -1.127,-0.673 -2.305,-0.841 -3.078,-0.841 -2.034,0 -3.313,0.925 -3.969,1.547 -1.311,1.228 -1.799,2.657 -1.799,4.238 0,2.069 0.858,3.498 1.799,4.389 1.161,1.093 2.506,1.463 4.054,1.463 1.025,0 2.017,-0.185 2.993,-0.807 z"
         style="fill:#f84800;fill-opacity:1;fill-rule:nonzero;stroke:none"
         id="path3800"
         inkscape:connector-curvature="0" />
    </g>
    <g
       id="g3802"
       transform="matrix(0.35277777,0,0,-0.35277777,84.870991,292.34502)">
      <path
         d="M 0,0 2.893,-5.986 5.517,0 H 7.299 L 2.237,-11.216 H 0.454 L 1.9,-8.038 -2.085,0 Z"
         style="fill:#f84800;fill-opacity:1;fill-rule:nonzero;stroke:none"
         id="path3804"
         inkscape:connector-curvature="0" />
    </g>
    <g
       id="g3806"
       transform="matrix(0.35277777,0,0,-0.35277777,88.853182,292.34502)">
      <path
         d="M 0,0 H 1.715 V -9.603 H 5.684 V 0 h 1.715 v -9.603 h 3.968 V 0 h 1.716 V -11.216 H 0 Z"
         style="fill:#f84800;fill-opacity:1;fill-rule:nonzero;stroke:none"
         id="path3808"
         inkscape:connector-curvature="0" />
    </g>
    <g
       id="g3810"
       transform="matrix(0.35277777,0,0,-0.35277777,97.915834,293.63831)">
      <path
         d="M 0,0 -7.566,-8.055 V 3.666 h 1.714 V -3.918 L 1.716,4.137 V -7.55 H 0 Z"
         style="fill:#f84800;fill-opacity:1;fill-rule:nonzero;stroke:none"
         id="path3812"
         inkscape:connector-curvature="0" />
    </g>
  </g>
</svg>
