<?xml version="1.0" encoding="utf-8"?>
<svg version="1.1" id="Capa_1" xmlns="http://www.w3.org/2000/svg" xmlns:xlink="http://www.w3.org/1999/xlink" x="0px" y="0px"
	 viewBox="0 0 44.2 44.2" style="enable-background:new 0 0 44.2 44.2;" xml:space="preserve">
<path fill="#979797" d="M22.1,44.2C9.9,44.2,0,34.3,0,22.1C0,9.9,9.9,0,22.1,0s22.1,9.9,22.1,22.1S34.3,44.2,22.1,44.2z M22.1,1.5
	c-11.4,0-20.6,9.3-20.6,20.6s9.3,20.6,20.6,20.6s20.6-9.3,20.6-20.6S33.5,1.5,22.1,1.5z"/>
<g>
	<path fill="#979797" d="M41.5,3.8L3.8,41.5c-0.3,0.3-0.8,0.3-1.1,0c-0.3-0.3-0.3-0.8,0-1.1L40.4,2.7c0.3-0.3,0.8-0.3,1.1,0
		C41.8,3,41.8,3.5,41.5,3.8z"/>
</g>
</svg>
