<svg xmlns="http://www.w3.org/2000/svg" width="157" height="175" viewBox="0 0 41.539583 46.302084"><path d="M35.776 13.735c-.781 0-1.37-.618-1.37-1.374 0-.765.594-1.392 1.379-1.392.781 0 1.37.619 1.37 1.375 0 .765-.593 1.391-1.379 1.391m.01-3.012c-.914 0-1.634.743-1.634 1.63 0 .895.71 1.629 1.624 1.629.914 0 1.634-.743 1.634-1.63a1.62 1.62 0 0 0-1.625-1.629m-.368 1.571v-.551h.456c.221 0 .355.104.355.267 0 .183-.15.284-.368.284zm1.049-.288a.415.415 0 0 0-.125-.31.646.646 0 0 0-.46-.163h-.694v1.55h.23V12.5h.389l.455.585h.285l-.481-.623c.234-.054.4-.205.4-.455m-1.196 5.925l-3.663-6.343a1.73 1.73 0 0 0-1.499-.866H11.51c-.618 0-1.19.33-1.499.866L6.35 17.932l9.054 1.178a1.99 1.99 0 0 1 1.685 2.404l-1.98 8.928a1.47 1.47 0 0 0 .533 1.479l5.168 4.016 5.168-4.016a1.47 1.47 0 0 0 .533-1.479l-1.98-8.929a1.99 1.99 0 0 1 1.685-2.404zM23 3.718L21.06.358l-1.939 3.36-3.788-2.247L16.98 6.82a.557.557 0 0 0 .532.393h7.097c.244 0 .46-.16.532-.393l1.647-5.349z" class="logo-part-1" fill="#fff"/><path d="M19.496 42.418l-4.908 3.979H27.03l-4.908-3.979a2.085 2.085 0 0 0-2.626 0m21.409-14.723l-4.553-7.886-7.342 3.718a1.813 1.813 0 0 0-.846 2.337l2.036 4.715a1.577 1.577 0 0 1-.271 1.675l-4.052 4.54a2.928 2.928 0 0 0 .017 3.92l5.165 5.683h.048l9.798-16.972a1.731 1.731 0 0 0 0-1.73M15.74 36.794l-4.05-4.54a1.577 1.577 0 0 1-.272-1.675l2.036-4.715c.38-.88.009-1.904-.846-2.337L5.265 19.81.712 27.695a1.731 1.731 0 0 0 0 1.73l9.799 16.972h.047l5.165-5.684a2.928 2.928 0 0 0 .018-3.92" class="logo-part-2" fill="#ffbe92"/></svg>