<svg xmlns="http://www.w3.org/2000/svg" width="424" height="328" viewBox="0 0 112.18333 86.783336"><path d="M71.361 13.79a1.36 1.36 0 0 1-1.37-1.375c0-.765.594-1.392 1.379-1.392.781 0 1.37.619 1.37 1.375 0 .765-.593 1.392-1.379 1.392m.01-3.013c-.914 0-1.634.743-1.634 1.63 0 .895.71 1.629 1.624 1.629.914 0 1.634-.743 1.634-1.63a1.62 1.62 0 0 0-1.625-1.629m-.368 1.571v-.551h.455c.222 0 .356.104.356.267 0 .184-.15.284-.368.284zm1.049-.288a.415.415 0 0 0-.125-.31.646.646 0 0 0-.46-.162h-.694v1.55h.23v-.585h.389l.455.585h.284l-.48-.623c.234-.054.4-.205.4-.455m-1.196 5.926l-3.663-6.343a1.73 1.73 0 0 0-1.499-.866H47.095c-.618 0-1.19.33-1.499.866l-3.662 6.343 9.054 1.178a1.99 1.99 0 0 1 1.685 2.404l-1.98 8.928a1.47 1.47 0 0 0 .533 1.479l5.168 4.016 5.168-4.016c.449-.348.656-.924.533-1.479l-1.98-8.929a1.99 1.99 0 0 1 1.685-2.404zM58.585 3.772l-1.94-3.36-1.939 3.36-3.788-2.247 1.647 5.349a.557.557 0 0 0 .532.393h7.097c.244 0 .46-.16.532-.393l1.647-5.349z" fill="#dc0021"/><path d="M55.08 42.472l-4.907 3.979h12.442l-4.908-3.979a2.085 2.085 0 0 0-2.626 0M76.49 27.749l-4.552-7.886-7.343 3.718a1.813 1.813 0 0 0-.846 2.337l2.036 4.715a1.577 1.577 0 0 1-.271 1.675l-4.052 4.54a2.928 2.928 0 0 0 .017 3.92l5.165 5.683h.048l9.798-16.972a1.731 1.731 0 0 0 0-1.73m-25.164 9.099l-4.052-4.54a1.577 1.577 0 0 1-.271-1.675l2.036-4.715c.38-.88.01-1.904-.846-2.337l-7.343-3.718-4.553 7.886a1.731 1.731 0 0 0 0 1.73l9.799 16.972h.047l5.165-5.684a2.928 2.928 0 0 0 .018-3.92" fill="#f84800"/><path d="M3.629 74.218v-10.85l-3.236.142v-5.164h12.136v5.164l-3.236-.143v10.851zM20.68 63.914c-.57.596-.904 1.523-.904 2.38 0 .904.333 1.785.904 2.356.476.476 1.19.81 2.07.81.881 0 1.595-.334 2.071-.81.524-.523.904-1.356.904-2.356 0-1-.333-1.832-.904-2.38-.428-.428-1.119-.808-2.07-.808-1.024 0-1.69.404-2.07.808m8.662 8.115c-1.357 1.38-3.57 2.546-6.592 2.546s-5.235-1.165-6.592-2.546c-1.237-1.261-2.213-3.212-2.213-5.759 0-2.522.976-4.473 2.213-5.734 1.357-1.38 3.57-2.547 6.592-2.547s5.235 1.166 6.592 2.547c1.237 1.26 2.213 3.212 2.213 5.734 0 2.547-.976 4.498-2.213 5.76m10.603-6.592h.976c.285 0 .88-.024 1.285-.429.214-.19.38-.5.38-.975 0-.5-.214-.81-.428-.976-.261-.214-.737-.357-1.166-.357h-1.047zm-5.616 8.78V58.347h7.615c2.522 0 3.974 1.023 4.64 1.666 1.309 1.285 1.618 2.903 1.618 4.164 0 1.31-.285 2.809-1.57 3.974-1.261 1.143-2.689 1.285-3.903 1.285h-2.784v4.784zm21.804-8.78h.976c.286 0 .88-.024 1.285-.429.214-.19.38-.5.38-.975 0-.5-.213-.81-.428-.976-.261-.214-.737-.357-1.166-.357h-1.047zm-5.615 8.78V58.347h7.614c2.523 0 3.974 1.023 4.64 1.666 1.31 1.285 1.619 2.903 1.619 4.164 0 1.31-.286 2.809-1.571 3.974-1.26 1.143-2.689 1.285-3.902 1.285h-2.785v4.784zm16.188 0V58.346h10.708v4.355h-4.95v1.475h4.498v4.165h-4.498v1.523h5.093v4.354zm19.643-8.804h.666c.334 0 .857-.048 1.214-.357.19-.167.405-.476.405-.976 0-.357-.096-.714-.31-.952-.19-.214-.5-.428-.975-.428h-1zm-5.616 8.804V58.346h7.163c1.665 0 3.402.19 4.854 1.642.81.81 1.5 2.023 1.5 3.903 0 1.404-.428 2.284-.881 2.832-.476.594-1.261 1.07-2.19 1.26v.144c.31.166.62.404.834.737l3.57 5.354h-6.64l-2.284-4.64c-.072-.166-.143-.238-.214-.5l-.096.048v5.092zm16.884-15.872h14.777l-6.02 9.805a7.163 7.163 0 0 1-.88 1.166l.047.095 1.094-.095h5.045v4.901H96.238l5.877-9.494c.381-.595.642-1.047 1.262-1.713l-.048-.096c-.262.096-.785.238-1.142.238h-4.57z" fill="#dc0021"/><path d="M17.565 82.128v3.957h-.605v-3.387h-1.317v1.97c0 .45-.018.907-.392 1.216a1.138 1.138 0 0 1-.985.201v-.558c.06.018.137.036.22.036a.501.501 0 0 0 .356-.136c.202-.196.196-.594.196-.937v-2.362zm2.146 0l1.02 2.112.926-2.112h.629L20.5 86.085h-.629l.51-1.121-1.406-2.836zm6.083 2.332c-.232.018-.623.041-.807.041-.267 0-.688-.023-.967-.243-.368-.29-.386-.77-.386-.961v-1.168h.605v1.079c0 .166 0 .445.214.611.136.107.356.125.628.125.262 0 .5-.018.713-.042V82.13h.605v3.956h-.605zm2.374-2.332h.605v3.388h1.4v-3.388h.605v3.388h1.4v-3.388h.605v3.957h-4.615zm8.558 2.432l-.587-1.34-.61 1.34zm.244.57h-1.691l-.434.955h-.652l1.97-4.188 1.874 4.188h-.652zm3.97-2.444c-.292 0-.517.03-.677.184a.628.628 0 0 0-.19.457c0 .267.13.409.226.475.16.106.42.141.605.141h.332v-1.257zm-.5 1.75a1.2 1.2 0 0 1-.61-.267c-.279-.243-.338-.552-.338-.842 0-.29.071-.576.302-.825.344-.368.795-.374 1.074-.374h.973v3.957h-.605v-1.584h-.143l-1.08 1.584h-.747zm8.417-2.308v3.957h-.605v-3.387h-1.697v3.387h-.605v-3.957zm4.443 1.294l-2.67 2.841v-4.135h.605v2.676l2.67-2.842v4.123h-.606zm2.376-1.294h.606v3.388h1.637v-3.388h.605v3.388h.51v1.46h-.57v-.89h-2.788zm4.792 0h.605v3.388h1.638v-3.388h.605v3.388h.51v1.46h-.57v-.89h-2.788zm7.102 2.432l-.587-1.34-.61 1.34zm.243.57h-1.69l-.433.955h-.653l1.97-4.188 1.875 4.188h-.653zm7.397-1.708l-2.67 2.841v-4.135h.605v2.676l2.67-2.842v4.123h-.605zm7.645-.368c-.439-.397-.848-.44-1.074-.44-.86 0-1.441.636-1.441 1.508 0 .836.605 1.483 1.447 1.483.475 0 .843-.243 1.068-.457v.718a2.16 2.16 0 0 1-1.086.296 1.984 1.984 0 0 1-1.4-.545c-.462-.434-.634-.938-.634-1.495 0-.73.302-1.234.634-1.549.41-.385.884-.516 1.43-.516.362 0 .712.065 1.056.285zm2.016-.926l1.02 2.112.926-2.112h.629l-1.786 3.957h-.629l.51-1.121-1.406-2.836zm3.982 0h.605v3.388h1.4v-3.388h.605v3.388h1.4v-3.388h.606v3.957h-4.616zm9.063 1.294l-2.67 2.841v-4.135h.605v2.676l2.67-2.842v4.123h-.605z" fill="#f84800"/></svg>