<svg xmlns="http://www.w3.org/2000/svg" viewBox="0 0 512.003 512.003"><path d="M497 122.001H116.862L105.9 38.211a15.153 15.153 0 0 0-.07-.476C102.252 15.87 83.575.001 61.42.001H15c-8.284 0-15 6.716-15 15s6.716 15 15 15h46.42a14.944 14.944 0 0 1 14.77 12.38l40.427 309.005c.021.159.044.318.07.476a44.526 44.526 0 0 0 4.148 12.782C103.463 370.883 91 387.509 91 407.001c0 24.813 20.187 45 45 45h17.58a44.79 44.79 0 0 0-2.58 15c0 24.813 20.187 45 45 45s45-20.187 45-45a44.79 44.79 0 0 0-2.58-15h96.161a44.79 44.79 0 0 0-2.58 15c0 24.813 20.187 45 45 45s45-20.187 45-45a44.79 44.79 0 0 0-2.58-15H467c8.284 0 15-6.716 15-15s-6.716-15-15-15H136c-8.271 0-15-6.729-15-15s6.729-15 15-15c.454 0 .907-.021 1.358-.062 43.845-3.986 259.734-23.537 307.932-27.903 20.373-1.852 36.951-17.239 40.314-37.417.021-.129.041-.258.059-.387l26.192-187.152c1.264-9.024-5.757-17.079-14.855-17.079zm-120 330c8.271 0 15 6.729 15 15s-6.729 15-15 15-15-6.729-15-15 6.729-15 15-15zm-181 0c8.271 0 15 6.729 15 15s-6.729 15-15 15-15-6.729-15-15 6.729-15 15-15zm-33.546-92.467c-7.733.702-14.776-4.695-16.127-12.319l-17.69-135.214h53.593l12.387 144.609-32.163 2.924zM286 348.343c-5.593.507-61.506 5.551-61.506 5.551L212.34 212.001H286v136.342zm92.132-8.346L316 345.626V212.001h74.483l-12.351 127.996zm77.852-18.149a15.004 15.004 0 0 1-13.405 12.312l-34.042 3.084 12.085-125.242h50.735l-15.373 109.846zm19.572-139.847H124.712l-3.925-30h358.967l-4.198 30z"/></svg>