<?xml version="1.0" encoding="UTF-8"?>
<!DOCTYPE svg PUBLIC "-//W3C//DTD SVG 1.1//EN" "http://www.w3.org/Graphics/SVG/1.1/DTD/svg11.dtd">
<svg xmlns="http://www.w3.org/2000/svg">
<symbol id="logo-footer" viewBox="0 0 112.18333 86.783336">
    <g id="layer1" transform="translate(0 -210.217)">
        <g id="g3698" transform="matrix(.35278 0 0 -.35278 71.361 224.006)">
            <path d="M0 0c-2.215 0-3.885 1.753-3.885 3.896 0 2.168 1.683 3.945 3.909 3.945 2.215 0 3.885-1.753 3.885-3.897C3.909 1.777 2.227 0 0 0m.025 8.539a4.628 4.628 0 0 1-4.63-4.619c0-2.538 2.014-4.618 4.604-4.618A4.628 4.628 0 0 1 4.63 3.92c0 2.539-2.016 4.619-4.605 4.619m-1.044-4.453v1.563H.272c.628 0 1.007-.295 1.007-.757 0-.521-.425-.806-1.042-.806zm2.973.817c0 .379-.142.676-.354.877-.285.284-.746.462-1.303.462H-1.67V1.848h.651v1.658H.083l1.291-1.658h.806L.817 3.612c.663.154 1.137.581 1.137 1.291" id="path3700" fill="#dc0021"/>
        </g>
        <g id="g3702" transform="matrix(.35278 0 0 -.35278 70.854 228.202)">
            <path d="M0 0l-10.381 17.98a4.906 4.906 0 0 1-4.249 2.453h-52.717a4.907 4.907 0 0 1-4.249-2.453L-81.977 0l25.664-3.34a5.64 5.64 0 0 0 4.777-6.814l-5.612-25.309a4.163 4.163 0 0 1 1.51-4.191l14.65-11.384 14.649 11.384a4.162 4.162 0 0 1 1.511 4.191l-5.613 25.311a5.64 5.64 0 0 0 4.778 6.814z" id="path3704" fill="#dc0021"/>
        </g>
        <g id="g3706" transform="matrix(.35278 0 0 -.35278 58.585 213.988)">
            <path d="M0 0l-5.497 9.521L-10.994 0l-10.739 6.368 4.669-15.161a1.578 1.578 0 0 1 1.508-1.114H4.562c.692 0 1.304.452 1.507 1.114l4.669 15.161z" id="path3708" fill="#dc0021"/>
        </g>
        <g id="g3710" transform="matrix(.35278 0 0 -.35278 55.08 252.69)">
            <path d="M0 0l-13.912-11.278h35.27L7.445 0A5.911 5.911 0 0 1 0 0" id="path3712" fill="#f84800"/>
        </g>
        <g id="g3714" transform="matrix(.35278 0 0 -.35278 76.49 237.965)">
            <path d="M0 0l-12.906 22.354-20.814-10.541a5.14 5.14 0 0 1-2.397-6.623l5.77-13.365a4.47 4.47 0 0 0-.768-4.749l-11.486-12.869a8.3 8.3 0 0 1 .05-11.11l14.641-16.111h.135L0-4.906A4.908 4.908 0 0 1 0 0" id="path3716" fill="#f84800"/>
        </g>
        <g id="g3718" transform="matrix(.35278 0 0 -.35278 51.326 247.065)">
            <path d="M0 0l-11.485 12.869a4.47 4.47 0 0 0-.769 4.749l5.77 13.365a5.14 5.14 0 0 1-2.397 6.623l-20.814 10.54-12.906-22.353a4.908 4.908 0 0 1 0-4.906l27.775-48.108h.135L-.05-11.11A8.3 8.3 0 0 1 0 0" id="path3720" fill="#f84800"/>
        </g>
        <g id="g3722" transform="matrix(.35278 0 0 -.35278 3.629 284.435)">
            <path d="M0 0v30.759l-9.173-.405v14.638h34.402V30.354l-9.174.405V0z" id="path3724" fill="#dc0021"/>
        </g>
        <g id="g3726" transform="matrix(.35278 0 0 -.35278 20.68 274.131)">
            <path d="M0 0c-1.619-1.687-2.563-4.317-2.563-6.746 0-2.563.944-5.059 2.563-6.678 1.349-1.348 3.373-2.293 5.868-2.293 2.497 0 4.52.945 5.869 2.293C13.221-11.94 14.3-9.579 14.3-6.746c0 2.833-.944 5.194-2.563 6.746-1.214 1.214-3.171 2.293-5.869 2.293C2.968 2.293 1.08 1.146 0 0m24.554-23.002c-3.846-3.913-10.118-7.218-18.686-7.218-8.566 0-14.839 3.305-18.684 7.218-3.508 3.575-6.273 9.106-6.273 16.324 0 7.15 2.765 12.681 6.273 16.256 3.845 3.913 10.118 7.218 18.684 7.218 8.568 0 14.84-3.305 18.686-7.218 3.507-3.575 6.273-9.106 6.273-16.256 0-7.218-2.766-12.749-6.273-16.324" id="path3728" fill="#dc0021"/>
        </g>
        <g id="g3730" transform="matrix(.35278 0 0 -.35278 39.946 275.654)">
            <path d="M0 0h2.766c.809 0 2.496.067 3.643 1.214.606.54 1.079 1.417 1.079 2.766 0 1.416-.607 2.293-1.214 2.765-.742.608-2.091 1.012-3.306 1.012H0zm-15.919-24.891v44.993H5.667c7.149 0 11.264-2.901 13.153-4.723 3.71-3.642 4.587-8.229 4.587-11.804 0-3.71-.809-7.96-4.452-11.265-3.575-3.238-7.622-3.642-11.063-3.642H0v-13.559z" id="path3732" fill="#dc0021"/>
        </g>
        <g id="g3734" transform="matrix(.35278 0 0 -.35278 56.134 275.654)">
            <path d="M0 0h2.766c.809 0 2.495.067 3.642 1.214.607.54 1.079 1.417 1.079 2.766 0 1.416-.607 2.293-1.215 2.765-.741.608-2.09 1.012-3.304 1.012H0zm-15.919-24.891v44.993H5.666c7.15 0 11.265-2.901 13.153-4.723 3.71-3.642 4.587-8.229 4.587-11.804 0-3.71-.809-7.96-4.452-11.265-3.574-3.238-7.622-3.642-11.061-3.642H0v-13.559z" id="path3736" fill="#dc0021"/>
        </g>
        <g id="g3738" transform="matrix(.35278 0 0 -.35278 66.707 284.435)">
            <path d="M0 0v44.992h30.354V32.647h-14.03v-4.181h12.748V16.661H16.324v-4.317h14.435V0z" id="path3740" fill="#dc0021"/>
        </g>
        <g id="g3742" transform="matrix(.35278 0 0 -.35278 86.35 275.63)">
            <path d="M0 0h1.889c.945 0 2.428.135 3.44 1.012.54.472 1.147 1.349 1.147 2.765 0 1.013-.27 2.024-.877 2.699-.539.607-1.416 1.213-2.765 1.213H0zm-15.919-24.958v44.992H4.385c4.721 0 9.645-.539 13.761-4.654 2.293-2.294 4.25-5.734 4.25-11.063 0-3.98-1.214-6.476-2.497-8.027-1.349-1.686-3.575-3.035-6.206-3.575v-.405c.877-.472 1.754-1.146 2.362-2.091l10.118-15.177H7.354L.878-11.804c-.203.471-.405.674-.607 1.416L0-10.522v-14.436z" id="path3744" fill="#dc0021"/>
        </g>
        <g id="g3746" transform="matrix(.35278 0 0 -.35278 97.618 268.563)">
            <path d="M0 0h41.889L24.823-27.792c-.675-1.146-1.619-2.36-2.496-3.305l.135-.27 3.102.27h14.301v-13.895H-3.912l16.66 26.914c1.08 1.686 1.821 2.968 3.576 4.856l-.136.271c-.741-.271-2.225-.674-3.237-.674H0z" id="path3748" fill="#dc0021"/>
        </g>
        <g id="g3750" transform="matrix(.35278 0 0 -.35278 17.565 292.345)">
            <path d="M0 0v-11.216h-1.715v9.602h-3.733v-5.583c0-1.278-.051-2.573-1.11-3.448-.572-.47-1.329-.672-2.035-.672-.303 0-.555.05-.757.101v1.581c.168-.051.387-.101.622-.101.438 0 .791.167 1.01.386.571.556.554 1.682.554 2.657V0z" id="path3752" fill="#f84800"/>
        </g>
        <g id="g3754" transform="matrix(.35278 0 0 -.35278 19.711 292.345)">
            <path d="M0 0l2.893-5.986L5.516 0h1.782L2.236-11.216H.454L1.9-8.038-2.085 0z" id="path3756" fill="#f84800"/>
        </g>
        <g id="g3758" transform="matrix(.35278 0 0 -.35278 25.794 294.676)">
            <path d="M0 0c-.656-.051-1.766-.118-2.287-.118-.757 0-1.951.067-2.741.689-1.043.825-1.094 2.186-1.094 2.725v3.312h1.716v-3.06c0-.471 0-1.261.605-1.732.387-.303 1.009-.353 1.782-.353.741 0 1.414.05 2.019.117v5.028h1.715V-4.608H0z" id="path3760" fill="#f84800"/>
        </g>
        <g id="g3762" transform="matrix(.35278 0 0 -.35278 28.168 292.345)">
            <path d="M0 0h1.715v-9.603h3.969V0h1.715v-9.603h3.969V0h1.715v-11.216H0z" id="path3764" fill="#f84800"/>
        </g>
        <g id="g3766" transform="matrix(.35278 0 0 -.35278 36.726 294.777)">
            <path d="M0 0l-1.665 3.801L-3.397 0zm.689-1.614h-4.793l-1.228-2.707h-1.849l5.583 11.872L3.716-4.321h-1.85z" id="path3768" fill="#f84800"/>
        </g>
        <g id="g3770" transform="matrix(.35278 0 0 -.35278 40.94 292.902)">
            <path d="M0 0c-.824 0-1.463-.085-1.917-.521a1.78 1.78 0 0 1-.538-1.296c0-.757.37-1.16.639-1.346.454-.301 1.194-.402 1.715-.402h.942V0zm-1.413-4.961a3.402 3.402 0 0 0-1.732.756c-.79.689-.958 1.565-.958 2.388 0 .824.202 1.631.858 2.338C-2.27 1.563-.992 1.58-.202 1.58h2.758V-9.636H.841v4.49H.437l-3.061-4.49h-2.118z" id="path3772" fill="#f84800"/>
        </g>
        <g id="g3774" transform="matrix(.35278 0 0 -.35278 48.857 292.345)">
            <path d="M0 0v-11.216h-1.715v9.602h-4.81v-9.602H-8.24V0z" id="path3776" fill="#f84800"/>
        </g>
        <g id="g3778" transform="matrix(.35278 0 0 -.35278 53.3 293.638)">
            <path d="M0 0l-7.567-8.055V3.666h1.715v-7.584l7.568 8.055V-7.55H0z" id="path3780" fill="#f84800"/>
        </g>
        <g id="g3782" transform="matrix(.35278 0 0 -.35278 55.676 292.345)">
            <path d="M0 0h1.716v-9.603h4.641V0h1.715v-9.603h1.447v-4.136H7.904v2.523H0z" id="path3784" fill="#f84800"/>
        </g>
        <g id="g3786" transform="matrix(.35278 0 0 -.35278 60.468 292.345)">
            <path d="M0 0h1.715v-9.603h4.641V0h1.715v-9.603h1.447v-4.136H7.903v2.523H0z" id="path3788" fill="#f84800"/>
        </g>
        <g id="g3790" transform="matrix(.35278 0 0 -.35278 67.57 294.777)">
            <path d="M0 0l-1.665 3.801L-3.397 0zm.688-1.614h-4.792l-1.228-2.707h-1.85l5.584 11.872L3.716-4.321h-1.85z" id="path3792" fill="#f84800"/>
        </g>
        <g id="g3794" transform="matrix(.35278 0 0 -.35278 75.21 293.638)">
            <path d="M0 0l-7.567-8.055V3.666h1.714v-7.584l7.568 8.055V-7.55H0z" id="path3796" fill="#f84800"/>
        </g>
        <g id="g3798" transform="matrix(.35278 0 0 -.35278 82.855 293.27)">
            <path d="M0 0c-1.245 1.126-2.405 1.244-3.044 1.244-2.438 0-4.087-1.799-4.087-4.271 0-2.371 1.716-4.204 4.104-4.204 1.344 0 2.387.689 3.027 1.295v-2.035a6.122 6.122 0 0 0-3.078-.841c-2.034 0-3.313.925-3.969 1.547-1.311 1.228-1.799 2.657-1.799 4.238 0 2.069.858 3.498 1.799 4.389 1.161 1.093 2.506 1.463 4.054 1.463 1.025 0 2.017-.185 2.993-.807z" id="path3800" fill="#f84800"/>
        </g>
        <g id="g3802" transform="matrix(.35278 0 0 -.35278 84.871 292.345)">
            <path d="M0 0l2.893-5.986L5.517 0h1.782L2.237-11.216H.454L1.9-8.038-2.085 0z" id="path3804" fill="#f84800"/>
        </g>
        <g id="g3806" transform="matrix(.35278 0 0 -.35278 88.853 292.345)">
            <path d="M0 0h1.715v-9.603h3.969V0h1.715v-9.603h3.968V0h1.716v-11.216H0z" id="path3808" fill="#f84800"/>
        </g>
        <g id="g3810" transform="matrix(.35278 0 0 -.35278 97.916 293.638)">
            <path d="M0 0l-7.566-8.055V3.666h1.714v-7.584l7.568 8.055V-7.55H0z" id="path3812" fill="#f84800"/>
        </g>
    </g>
</symbol>
<symbol id="logo-mobile" viewBox="0 0 41.539583 46.302084">
    <g id="layer1" transform="translate(0 -250.698)">
        <path d="M35.776 264.433c-.781 0-1.37-.618-1.37-1.374 0-.765.594-1.392 1.379-1.392.781 0 1.37.619 1.37 1.375 0 .764-.593 1.391-1.379 1.391m.01-3.012c-.914 0-1.634.743-1.634 1.63 0 .895.71 1.629 1.624 1.629.914 0 1.634-.743 1.634-1.63a1.62 1.62 0 0 0-1.625-1.629m-.368 1.57v-.55h.456c.221 0 .355.104.355.267 0 .183-.15.284-.368.284zm1.049-.287a.415.415 0 0 0-.125-.31.646.646 0 0 0-.46-.163h-.694v1.55h.23v-.584h.389l.455.584h.285l-.481-.622c.234-.054.4-.205.4-.455" id="path3700" class="logo-part-1" fill="#fff" stroke-width=".353"/>
        <path d="M35.269 268.63l-3.663-6.343a1.73 1.73 0 0 0-1.499-.866H11.51c-.618 0-1.19.33-1.499.866l-3.662 6.342 9.054 1.179a1.99 1.99 0 0 1 1.685 2.404l-1.98 8.928c-.123.555.084 1.13.533 1.479l5.168 4.016 5.168-4.016c.449-.349.656-.924.533-1.479l-1.98-8.93a1.99 1.99 0 0 1 1.685-2.403z" id="path3704" class="logo-part-1" fill="#fff" stroke-width=".353"/>
        <path d="M23 254.416l-1.94-3.36-1.939 3.36-3.788-2.247 1.647 5.348a.557.557 0 0 0 .532.393h7.097c.244 0 .46-.159.532-.393l1.647-5.348z" id="path3708" class="logo-part-1" fill="#fff" stroke-width=".353"/>
        <path d="M19.496 293.116l-4.908 3.979H27.03l-4.908-3.979a2.085 2.085 0 0 0-2.626 0" id="path3712" class="logo-part-2" fill="#ffbe92" stroke-width=".353"/>
        <path d="M40.905 278.393l-4.553-7.886-7.342 3.718a1.813 1.813 0 0 0-.846 2.337l2.036 4.714a1.577 1.577 0 0 1-.271 1.676l-4.052 4.54a2.928 2.928 0 0 0 .017 3.92l5.165 5.683h.048l9.798-16.972a1.731 1.731 0 0 0 0-1.73" id="path3716" class="logo-part-2" fill="#ffbe92" stroke-width=".353"/>
        <path d="M15.74 287.492l-4.05-4.54a1.577 1.577 0 0 1-.272-1.676l2.036-4.714c.38-.88.009-1.904-.846-2.337l-7.343-3.718-4.553 7.886a1.731 1.731 0 0 0 0 1.73l9.799 16.972h.047l5.165-5.684a2.928 2.928 0 0 0 .018-3.92" id="path3720" class="logo-part-2" fill="#ffbe92" stroke-width=".353"/>
    </g>
</symbol>
<symbol id="phone" viewBox="0 0 512 512">
    <path d="M256 32c123.5 0 224 100.5 224 224S379.5 480 256 480 32 379.5 32 256 132.5 32 256 32m0-32C114.625 0 0 114.625 0 256s114.625 256 256 256 256-114.625 256-256S397.375 0 256 0zm142.719 341.594l-1.438-4.375c-3.375-10.062-14.5-20.562-24.75-23.375L334.688 303.5c-10.25-2.781-24.875.969-32.405 8.5l-13.688 13.688c-49.75-13.469-88.781-52.5-102.219-102.25l13.688-13.688c7.5-7.5 11.25-22.125 8.469-32.406L198.219 139.5c-2.781-10.25-13.344-21.375-23.406-24.75l-4.313-1.438c-10.094-3.375-24.5.031-32 7.563l-20.5 20.5c-3.656 3.625-6 14.031-6 14.063-.688 65.063 24.813 127.719 70.813 173.75 45.875 45.875 108.313 71.345 173.156 70.781.344 0 11.063-2.281 14.719-5.938l20.5-20.5c7.5-7.469 10.874-21.875 7.531-31.937z"/>
</symbol>
<symbol id="shopping-cart" viewBox="0 0 512.003 512.003">
    <path d="M497 122.001H116.862L105.9 38.211a15.153 15.153 0 0 0-.07-.476C102.252 15.87 83.575.001 61.42.001H15c-8.284 0-15 6.716-15 15s6.716 15 15 15h46.42a14.944 14.944 0 0 1 14.77 12.38l40.427 309.005c.021.159.044.318.07.476a44.526 44.526 0 0 0 4.148 12.782C103.463 370.883 91 387.509 91 407.001c0 24.813 20.187 45 45 45h17.58a44.79 44.79 0 0 0-2.58 15c0 24.813 20.187 45 45 45s45-20.187 45-45a44.79 44.79 0 0 0-2.58-15h96.161a44.79 44.79 0 0 0-2.58 15c0 24.813 20.187 45 45 45s45-20.187 45-45a44.79 44.79 0 0 0-2.58-15H467c8.284 0 15-6.716 15-15s-6.716-15-15-15H136c-8.271 0-15-6.729-15-15s6.729-15 15-15c.454 0 .907-.021 1.358-.062 43.845-3.986 259.734-23.537 307.932-27.903 20.373-1.852 36.951-17.239 40.314-37.417.021-.129.041-.258.059-.387l26.192-187.152c1.264-9.024-5.757-17.079-14.855-17.079zm-120 330c8.271 0 15 6.729 15 15s-6.729 15-15 15-15-6.729-15-15 6.729-15 15-15zm-181 0c8.271 0 15 6.729 15 15s-6.729 15-15 15-15-6.729-15-15 6.729-15 15-15zm-33.546-92.467c-7.733.702-14.776-4.695-16.127-12.319l-17.69-135.214h53.593l12.387 144.609-32.163 2.924zM286 348.343c-5.593.507-61.506 5.551-61.506 5.551L212.34 212.001H286v136.342zm92.132-8.346L316 345.626V212.001h74.483l-12.351 127.996zm77.852-18.149a15.004 15.004 0 0 1-13.405 12.312l-34.042 3.084 12.085-125.242h50.735l-15.373 109.846zm19.572-139.847H124.712l-3.925-30h358.967l-4.198 30z"/>
</symbol>
</svg>